<?xml version="1.0" encoding="iso-8859-1"?>
<!-- Generator: Adobe Illustrator 16.0.0, SVG Export Plug-In . SVG Version: 6.00 Build 0)  -->
<!DOCTYPE svg PUBLIC "-//W3C//DTD SVG 1.1//EN" "http://www.w3.org/Graphics/SVG/1.1/DTD/svg11.dtd">
<svg version="1.1" id="Capa_1" xmlns="http://www.w3.org/2000/svg" xmlns:xlink="http://www.w3.org/1999/xlink" x="0px" y="0px"
	 width="487.734px" height="487.734px" viewBox="0 0 487.734 487.734" style="enable-background:new 0 0 487.734 487.734;"
	 xml:space="preserve">
<g>
	<path d="M388.136,137.337l-84.25-97.738l3.164-32.028c0.233-2.476-0.873-4.898-2.922-6.329c-2.053-1.428-4.713-1.638-6.939-0.562
		L180.612,56.996c-2.38,1.162-3.895,3.584-3.895,6.219v36.765L100.69,157c-1.734,1.318-2.763,3.363-2.763,5.519v267.77
		c0,2.879,1.811,5.493,4.536,6.459l139.042,50.559c0.761,0.299,1.563,0.429,2.357,0.429c1.137,0,2.273-0.294,3.3-0.863
		l139.051-75.845c2.212-1.185,3.594-3.523,3.594-6.029V141.834C389.807,140.191,389.214,138.604,388.136,137.337z M190.499,67.534
		l101.616-49.077l-1.89,19.04l-99.727,52.715V67.534z M236.967,221.615v249.369l-125.25-45.536V165.97l69.588-52.281l47.299,87.723
		c1.246,2.317,3.612,3.636,6.074,3.636c1.104,0,2.221-0.273,3.262-0.831c3.355-1.806,4.609-5.979,2.798-9.353l-48.283-89.547
		l2.919-2.184l99.719-52.598l77.259,89.603L236.967,221.615z M376.021,400.899l-125.256,68.335V229.397l125.256-75.362V400.899z
		 M287.509,281.888c0,0,0,0,0.005,0c8.102,0,18.276-2.861,29.439-8.293c20.965-10.184,44.239-29.678,46.12-45.703
		c0.658-5.664-1.438-9.353-3.304-11.453c-2.189-2.478-6.497-5.409-14.528-5.409c-8.107,0-18.281,2.882-29.427,8.321
		c-20.964,10.184-44.253,29.68-46.139,45.708c-0.653,5.656,1.438,9.343,3.3,11.448C275.174,278.948,279.477,281.888,287.509,281.888
		z M321.845,231.738c9.021-4.392,17.548-6.924,23.396-6.924c2.768,0,4.014,0.597,4.139,1.482
		c-0.84,7.168-15.877,23.921-38.466,34.907c-9.017,4.392-17.548,6.894-23.4,6.894h-0.005c-2.758,0-4.014-0.561-4.13-1.429
		C284.219,259.477,299.266,242.731,321.845,231.738z M266.171,365.139c-1.731-3.393-0.396-7.569,2.987-9.292l85.328-43.744
		c3.369-1.746,7.551-0.396,9.282,2.991c1.736,3.397,0.397,7.547-2.991,9.292l-85.333,43.745c-0.998,0.509-2.081,0.756-3.132,0.756
		C269.807,368.887,267.39,367.51,266.171,365.139z M266.171,406.098c-1.731-3.389-0.396-7.57,2.987-9.283l85.328-43.744
		c3.369-1.751,7.551-0.378,9.282,2.991c1.736,3.393,0.397,7.542-2.991,9.292l-85.333,43.74c-0.998,0.509-2.081,0.751-3.132,0.751
		C269.807,409.845,267.39,408.468,266.171,406.098z M130.802,273.847l1.482,72.33l-5.05-1.811l-1.463-72.326L130.802,273.847z
		 M189.481,294.784l1.461,72.33l-5.045-1.825L184.43,293L189.481,294.784z M140.272,277.216l1.475,72.326l-2.508-0.887
		l-1.505-72.312L140.272,277.216z M194.102,296.458l1.477,72.316l-2.532-0.9l-1.473-72.33L194.102,296.458z M178.967,291.059
		l1.477,72.288l-2.518-0.9l-1.486-72.307L178.967,291.059z M166.562,286.597l1.479,72.35l-2.518-0.934l-1.486-72.312
		L166.562,286.597z M151.61,281.309l1.501,72.294l-5.05-1.797l-1.487-72.326L151.61,281.309z M173.695,289.16l1.477,72.307
		l-5.047-1.801l-1.466-72.303L173.695,289.16z M155.827,282.765l1.482,72.354l-2.506-0.901l-1.491-72.325L155.827,282.765z
		 M200.841,298.83l1.477,72.33l-2.525-0.877l-1.475-72.345L200.841,298.83z M212.201,302.922l1.458,72.284l-5.028-1.783
		l-1.491-72.325L212.201,302.922z M216.392,304.393l1.477,72.325l-2.518-0.914l-1.482-72.289L216.392,304.393z"/>
</g>
<g>
</g>
<g>
</g>
<g>
</g>
<g>
</g>
<g>
</g>
<g>
</g>
<g>
</g>
<g>
</g>
<g>
</g>
<g>
</g>
<g>
</g>
<g>
</g>
<g>
</g>
<g>
</g>
<g>
</g>
</svg>
